<svg width="116" height="28" viewBox="0 0 116 28" fill="none" xmlns="http://www.w3.org/2000/svg">
    <g clip-path="url(#nohm9n5yqa)" fill="#fff">
        <path d="M36.105 23.092c.012 1.176-.349 2.316-1.014 3.21-.665.893-1.59 1.48-2.602 1.65-1.012.17-2.044-.088-2.904-.725-.86-.637-1.49-1.611-1.773-2.74-.031-.127-2.128-10.305-2.128-10.305s-.397-1.914-.411-1.966a.107.107 0 0 0-.024-.065.082.082 0 0 0-.056-.03.079.079 0 0 0-.06.02.102.102 0 0 0-.031.061 98.68 98.68 0 0 0-.352 1.841l-1.794 9.276c-.204 1.274-.779 2.43-1.63 3.28-.85.85-1.927 1.343-3.053 1.397-1.127.055-2.236-.33-3.147-1.095-.91-.764-1.568-1.86-1.865-3.11-.029-.094-1.896-9.741-1.896-9.741s-.207-1.112-.344-1.777c-.03-.172-.162-.157-.191 0l-.405 1.91s-2.092 10.18-2.129 10.303c-.282 1.13-.912 2.105-1.773 2.742-.86.638-1.892.895-2.905.725-1.013-.17-1.938-.757-2.603-1.65C.35 25.409-.011 24.267 0 23.092c0-.432.05-.86.148-1.277H.133L4.17 5.207c.356-1.524 1.148-2.866 2.249-3.81C7.519.451 8.865-.04 10.239 0c1.372.04 2.694.61 3.751 1.619 1.057 1.008 1.788 2.395 2.075 3.939l1.809 7.29c.01.05.033.094.068.126a.177.177 0 0 0 .121.048c.122 0 .165-.173.165-.173l1.808-7.291c.287-1.543 1.018-2.93 2.075-3.937C23.167.614 24.488.044 25.86.004c1.372-.04 2.717.45 3.817 1.394s1.892 2.286 2.248 3.81l4.037 16.624c.099.41.147.835.142 1.26zM66.668 4.904c-.009-1.175.353-2.313 1.017-3.204.665-.892 1.589-1.477 2.6-1.647 1.011-.17 2.042.086 2.901.72.86.636 1.49 1.607 1.775 2.735.035.13 2.13 10.309 2.13 10.309s.393 1.912.412 1.964a.11.11 0 0 0 .027.063.086.086 0 0 0 .057.029.082.082 0 0 0 .058-.02.107.107 0 0 0 .034-.06c.023-.083.353-1.842.353-1.842l1.794-9.268c.203-1.275.778-2.433 1.629-3.283.851-.851 1.929-1.344 3.056-1.4 1.128-.054 2.238.332 3.149 1.097.91.765 1.568 1.863 1.865 3.113.023.086 1.89 9.734 1.89 9.734s.208 1.112.338 1.779c.038.175.165.15.2.015l.385-1.928s2.097-10.178 2.135-10.308c.284-1.129.914-2.1 1.773-2.737.86-.635 1.89-.892 2.902-.722 1.012.17 1.935.756 2.6 1.649.664.892 1.025 2.03 1.015 3.205-.003.43-.049.858-.138 1.276l-4.034 16.615c-.354 1.525-1.145 2.869-2.245 3.814-1.1.945-2.446 1.438-3.82 1.397-1.373-.04-2.695-.612-3.751-1.62-1.056-1.01-1.787-2.398-2.072-3.942l-1.806-7.294a.22.22 0 0 0-.067-.125.17.17 0 0 0-.123-.045c-.123 0-.166.17-.166.17l-1.801 7.296c-.284 1.546-1.014 2.938-2.072 3.95-1.057 1.01-2.38 1.583-3.757 1.623-1.375.04-2.723-.453-3.824-1.4-1.101-.949-1.892-2.296-2.245-3.824L66.808 6.167a5.425 5.425 0 0 1-.14-1.263zM116 4.34c-.127-2.417-2.222-4.34-4.799-4.34-2.577 0-4.679 1.923-4.799 4.34l.008 19.467c.199 2.342 2.269 4.193 4.799 4.193 2.53 0 4.595-1.85 4.8-4.193L116 4.341zM64.462 12.957c-.318-5.129-2.273-9.136-6.534-11.413C55.185.073 52.26-.217 49.27.137c-2.512.29-4.845 1.155-6.856 2.94-3.04 2.7-4.239 6.414-4.303 10.614-.064 4.99 1.385 9.245 5.31 12.036 2.418 1.712 5.123 2.257 8.255 2.273.4-.033 1.123-.042 1.843-.14 3.687-.515 6.84-2.114 8.965-5.699 1.657-2.783 2.172-5.924 1.978-9.204zm-10.33 3.884c-.539 1.24-1.34 1.8-2.27 1.978-.155.026-.31.043-.465.05-.793 0-1.474-.197-2.089-.787-.988-.967-1.355-2.45-1.337-4.182.01-1.462.318-2.753 1.089-3.694.45-.57 1.065-.935 1.73-1.03.766-.127 1.498-.022 2.194.489 1.08.787 1.568 2.188 1.646 3.97.052 1.14-.084 2.234-.498 3.206z"/>
    </g>
    <defs>
        <clipPath id="nohm9n5yqa">
            <path fill="#fff" d="M0 0h116v28H0z"/>
        </clipPath>
    </defs>
</svg>
