<svg width="30" height="30" viewBox="0 0 30 30" fill="none" xmlns="http://www.w3.org/2000/svg">
    <path d="M30 1.552V11.9c0 .86-.692 1.552-1.552 1.552H18.103a1.552 1.552 0 0 1 0-3.104h6.498c-1.92-3.731-5.819-6.208-10.118-6.208-6.33 0-11.38 5.05-11.38 11.382a11.359 11.359 0 0 0 11.38 11.382c2.656 0 5.243-.936 7.28-2.636a1.552 1.552 0 1 1 1.988 2.385A14.524 14.524 0 0 1 14.473 30C6.49 30 0 23.508 0 15.52 0 7.535 6.491 1.042 14.476 1.042c5.163 0 9.854 2.81 12.42 7.056V1.552a1.552 1.552 0 0 1 3.104 0z" fill="#522F51"/>
</svg>
